<svg width="48" height="48" viewBox="0 0 48 48" fill="none" xmlns="http://www.w3.org/2000/svg">
<circle cx="24" cy="24" r="24" fill="url(#paint0_linear_2010_438)"/>
<g clip-path="url(#clip0_2010_438)">
<path fill-rule="evenodd" clip-rule="evenodd" d="M24 12C17.3724 12 12 17.3808 12 24.0204C12 29.3304 15.438 33.8364 20.2068 35.4252C20.8068 35.5356 21.0252 35.1648 21.0252 34.8456C21.0252 34.5612 21.0156 33.804 21.0096 32.802C17.6712 33.528 16.9668 31.1904 16.9668 31.1904C16.422 29.8008 15.6348 29.4312 15.6348 29.4312C14.5452 28.6872 15.7176 28.7016 15.7176 28.7016C16.9212 28.7856 17.5548 29.94 17.5548 29.94C18.6252 31.776 20.364 31.2456 21.0468 30.9384C21.1572 30.162 21.4668 29.6328 21.81 29.3328C19.146 29.0292 16.344 27.9972 16.344 23.3916C16.344 22.08 16.812 21.006 17.5788 20.166C17.4552 19.8624 17.0436 18.6396 17.6964 16.986C17.6964 16.986 18.7044 16.662 20.9964 18.2172C21.9753 17.9502 22.9853 17.8142 24 17.8128C25.02 17.8176 26.046 17.9508 27.0048 18.2172C29.2956 16.662 30.3012 16.9848 30.3012 16.9848C30.9564 18.6396 30.5436 19.8624 30.4212 20.166C31.1892 21.006 31.6548 22.08 31.6548 23.3916C31.6548 28.0092 28.848 29.0256 26.1756 29.3232C26.6064 29.694 26.9892 30.4272 26.9892 31.5492C26.9892 33.1548 26.9748 34.452 26.9748 34.8456C26.9748 35.1672 27.1908 35.5416 27.8004 35.424C30.19 34.6225 32.2672 33.0904 33.7386 31.0441C35.2099 28.9977 36.001 26.5408 36 24.0204C36 17.3808 30.6264 12 24 12Z" fill="white"/>
</g>
<defs>
<linearGradient id="paint0_linear_2010_438" x1="24" y1="0" x2="24" y2="48" gradientUnits="userSpaceOnUse">
<stop stop-color="#069AFC"/>
<stop offset="1" stop-color="#907CFF"/>
</linearGradient>
<clipPath id="clip0_2010_438">
<rect width="24" height="24" fill="white" transform="translate(12 12)"/>
</clipPath>
</defs>
</svg>
